<?xml version="1.0" standalone="no"?><!DOCTYPE svg PUBLIC "-//W3C//DTD SVG 1.1//EN" "http://www.w3.org/Graphics/SVG/1.1/DTD/svg11.dtd"><svg t="1724226865085" class="icon" viewBox="0 0 1024 1024" version="1.1" xmlns="http://www.w3.org/2000/svg" p-id="1563" xmlns:xlink="http://www.w3.org/1999/xlink" width="200" height="200"><path d="M944 144H48a32 32 0 0 0-32 32v672a32 32 0 0 0 32 32h160v-28.48a48 48 0 1 1 64 0V880h192v-28.48a48 48 0 1 1 64 0V880h192v-28.48a48 48 0 1 1 64 0V880h160a32 32 0 0 0 32-32V176a32 32 0 0 0-32-32z" fill="#FAEFDE" p-id="1564"></path><path d="M16 144h960v80H16z" fill="#FFF7F0" p-id="1565"></path><path d="M16 736v112a32 32 0 0 0 32 32h160v-28.48a48 48 0 0 1-16-44 48 48 0 0 1 96 8.48 48 48 0 0 1-16 35.52V880h192v-28.48a48 48 0 0 1-16-44 48 48 0 0 1 96 8.48 48 48 0 0 1-16 35.52V880h192v-28.48a48 48 0 0 1-16-44 48 48 0 0 1 96 8.48 48 48 0 0 1-16 35.52V880h160a32 32 0 0 0 32-32v-112a64 64 0 0 0-64-64H80a64 64 0 0 0-64 64z" fill="#EFD8BE" p-id="1566"></path><path d="M496 601.44C481.76 532.32 400 480 304 480S128 532.48 113.28 601.76c0 1.92 2.88 5.6 2.88 5.6h375.52s4.32-4 4.32-5.92z" fill="#72CAAF" p-id="1567"></path><path d="M214.4 272m89.6 0l0 0q89.6 0 89.6 89.6l0 60.8q0 89.6-89.6 89.6l0 0q-89.6 0-89.6-89.6l0-60.8q0-89.6 89.6-89.6Z" fill="#F9E3AE" p-id="1568"></path><path d="M816 640a16 16 0 0 0-16 16v32a16 16 0 1 0 32 0v-32a16 16 0 0 0-16-16zM896 640a16 16 0 0 0-16 16v32a16 16 0 1 0 32 0v-32a16 16 0 0 0-16-16zM736 640a16 16 0 0 0-16 16v32a16 16 0 1 0 32 0v-32a16 16 0 0 0-16-16zM656 640a16 16 0 0 0-16 16v32a16 16 0 1 0 32 0v-32a16 16 0 0 0-16-16zM576 640a16 16 0 0 0-16 16v32a16 16 0 1 0 32 0v-32a16 16 0 0 0-16-16zM496 640a16 16 0 0 0-16 16v32a16 16 0 1 0 32 0v-32a16 16 0 0 0-16-16zM416 640a16 16 0 0 0-16 16v32a16 16 0 1 0 32 0v-32a16 16 0 0 0-16-16zM336 640a16 16 0 0 0-16 16v32a16 16 0 1 0 32 0v-32a16 16 0 0 0-16-16zM256 640a16 16 0 0 0-16 16v32a16 16 0 0 0 32 0v-32a16 16 0 0 0-16-16zM96 640a16 16 0 0 0-16 16v32a16 16 0 0 0 32 0v-32a16 16 0 0 0-16-16zM176 640a16 16 0 0 0-16 16v32a16 16 0 0 0 32 0v-32a16 16 0 0 0-16-16z" fill="#8D6C9F" p-id="1569"></path><path d="M944 128H48a48 48 0 0 0-48 48v672a48 48 0 0 0 48 48h160a16 16 0 0 0 16-16v-28.48a16 16 0 0 0-5.28-11.84A32 32 0 0 1 208 816a32 32 0 0 1 64 0 32 32 0 0 1-10.72 23.68 16 16 0 0 0-5.28 11.84V880a16 16 0 0 0 16 16h192a16 16 0 0 0 16-16v-28.48a16 16 0 0 0-5.28-11.84A32 32 0 0 1 464 816a32 32 0 0 1 64 0 32 32 0 0 1-10.72 23.68 16 16 0 0 0-5.28 11.84V880a16 16 0 0 0 16 16h192a16 16 0 0 0 16-16v-28.48a16 16 0 0 0-5.28-11.84A32 32 0 0 1 720 816a32 32 0 0 1 64 0 32 32 0 0 1-10.72 23.68 16 16 0 0 0-5.28 11.84V880a16 16 0 0 0 16 16h160a48 48 0 0 0 48-48V176a48 48 0 0 0-48-48z m16 720a16 16 0 0 1-16 16h-144v-5.92a64 64 0 1 0-96 0V864H544v-5.92a64 64 0 1 0-96 0V864H288v-5.92a64 64 0 1 0-96 0V864H48a16 16 0 0 1-16-16V176a16 16 0 0 1 16-16h896a16 16 0 0 1 16 16z" fill="#8D6C9F" p-id="1570"></path><path d="M496 608a16 16 0 0 0 14.4-22.88 211.52 211.52 0 0 0-118.24-109.44A139.52 139.52 0 0 0 416 400v-32a112 112 0 0 0-224 0v32a139.52 139.52 0 0 0 23.84 75.52 211.52 211.52 0 0 0-118.24 109.6 16 16 0 1 0 28.8 13.76 178.24 178.24 0 0 1 112-97.12A98.72 98.72 0 0 0 304 528a98.72 98.72 0 0 0 65.44-26.24 178.08 178.08 0 0 1 112 97.12A16 16 0 0 0 496 608zM224 400v-32a80 80 0 0 1 160 0v32c0 43.52-35.68 96-80 96s-80-52.48-80-96zM560 352h160a16 16 0 0 0 0-32H560a16 16 0 0 0 0 32zM752 512H560a16 16 0 0 0 0 32h192a16 16 0 0 0 0-32zM848 320h-64a16 16 0 0 0 0 32h64a16 16 0 0 0 0-32zM848 416H560a16 16 0 0 0 0 32h288a16 16 0 0 0 0-32z" fill="#8D6C9F" p-id="1571"></path></svg>