<?xml version="1.0" standalone="no"?><!DOCTYPE svg PUBLIC "-//W3C//DTD SVG 1.1//EN" "http://www.w3.org/Graphics/SVG/1.1/DTD/svg11.dtd"><svg t="1724226895855" class="icon" viewBox="0 0 1024 1024" version="1.1" xmlns="http://www.w3.org/2000/svg" p-id="1742" xmlns:xlink="http://www.w3.org/1999/xlink" width="200" height="200"><path d="M144 207.04h608v768H144z" fill="#85CBF8" p-id="1743"></path><path d="M512 207.04h240v768H512z" fill="#7BBEEB" p-id="1744"></path><path d="M144 207.04h176v768H144z" fill="#9FDDFF" p-id="1745"></path><path d="M112 143.04m32 0l608 0q32 0 32 32l0 0q0 32-32 32l-608 0q-32 0-32-32l0 0q0-32 32-32Z" fill="#F9DD8F" p-id="1746"></path><path d="M572.16 774.88L750.24 864a64 64 0 0 1 35.52 57.28V960a16 16 0 0 1-16 16H256a16 16 0 0 1-16-16v-39.2A64 64 0 0 1 275.52 864l178.08-88.64" fill="#ED7899" p-id="1747"></path><path d="M659.84 645.28a14.08 14.08 0 0 0-11.2 2.56 138.56 138.56 0 0 0-10.08-46.08c-9.76-26.4 28-10.72 28-10.72a138.88 138.88 0 0 0-144-115.84H512a138.72 138.72 0 0 0-73.6 20.8c-34.88 0-59.2 23.68-63.2 63.2a430.72 430.72 0 0 0 2.24 70.72 139.04 139.04 0 0 0-1.92 17.6 14.08 14.08 0 0 0-11.2-2.56c-11.2 3.04-16 23.68-9.44 46.08s17.76 35.36 28.48 35.36c19.04 64 69.44 128 128.8 128s109.76-64 128.8-128c10.72 0 22.88-14.72 28.48-35.36s1.6-42.72-9.6-45.76z" fill="#FAEFDE" p-id="1748"></path><path d="M732.16 774.88L910.24 864a64 64 0 0 1 35.52 57.28V960a16 16 0 0 1-16 16H416a16 16 0 0 1-16-16v-39.2A64 64 0 0 1 435.52 864l178.08-88.64" fill="#72CAAF" p-id="1749"></path><path d="M426.88 591.2l16.8-25.6a10.56 10.56 0 0 1 13.44-3.68l16 8a210.56 210.56 0 0 0 92.32 21.28H592a224 224 0 0 0 52-1.76c12.96-4.32 7.68-41.28 7.68-41.28s-20.32-48-65.28-60.64-96-20.16-146.72 9.12-59.68 8.8-62.4 43.2a310.56 310.56 0 0 0 2.72 75.36c4 16.8 46.88-24 46.88-24z" fill="#CDA1A7" p-id="1750"></path><path d="M819.84 645.28a14.08 14.08 0 0 0-11.2 2.56 138.56 138.56 0 0 0-10.08-46.08c-9.76-26.4 28-10.72 28-10.72a138.88 138.88 0 0 0-144-115.84H672a138.72 138.72 0 0 0-73.6 20.8c-34.88 0-59.2 23.68-63.2 63.2a430.72 430.72 0 0 0 2.24 70.72 139.04 139.04 0 0 0-1.92 17.6 14.08 14.08 0 0 0-11.2-2.56c-11.2 3.04-16 23.68-9.44 46.08s17.76 35.36 28.48 35.36c19.04 64 69.44 128 128.8 128s109.76-64 128.8-128c10.72 0 22.88-14.72 28.48-35.36s1.6-42.72-9.6-45.76z" fill="#FAEFDE" p-id="1751"></path><path d="M586.88 591.2l16.8-25.6a10.56 10.56 0 0 1 13.44-3.68l16 8a210.56 210.56 0 0 0 92.32 21.28H752a224 224 0 0 0 52-1.76c12.96-4.32 7.68-41.28 7.68-41.28s-20.32-48-65.28-60.64-96-20.16-146.72 9.12-59.68 8.8-62.4 43.2a310.56 310.56 0 0 0 2.72 75.36c4 16.8 46.88-24 46.88-24z" fill="#CDA1A7" p-id="1752"></path><path d="M240 448h32a16 16 0 0 0 0-32h-32a16 16 0 0 0 0 32zM240 320h32a16 16 0 0 0 0-32h-32a16 16 0 0 0 0 32zM240 384h32a16 16 0 0 0 0-32h-32a16 16 0 0 0 0 32zM368 320h32a16 16 0 0 0 0-32h-32a16 16 0 0 0 0 32zM368 384h32a16 16 0 0 0 0-32h-32a16 16 0 0 0 0 32zM368 448h32a16 16 0 0 0 0-32h-32a16 16 0 0 0 0 32zM496 320h32a16 16 0 0 0 0-32h-32a16 16 0 0 0 0 32zM496 384h32a16 16 0 0 0 0-32h-32a16 16 0 0 0 0 32zM624 320h32a16 16 0 0 0 0-32h-32a16 16 0 0 0 0 32zM624 384h32a16 16 0 0 0 0-32h-32a16 16 0 0 0 0 32zM240 640h32a16 16 0 0 0 0-32h-32a16 16 0 0 0 0 32zM240 512h32a16 16 0 0 0 0-32h-32a16 16 0 0 0 0 32zM240 576h32a16 16 0 0 0 0-32h-32a16 16 0 0 0 0 32zM240 704h32a16 16 0 0 0 0-32h-32a16 16 0 0 0 0 32zM240 768h32a16 16 0 0 0 0-32h-32a16 16 0 0 0 0 32z" fill="#8D6C9F" p-id="1753"></path><path d="M917.44 849.12l-125.6-62.4a252.96 252.96 0 0 0 21.6-46.88 65.92 65.92 0 0 0 31.2-44.32 83.2 83.2 0 0 0 2.08-37.76 33.76 33.76 0 0 0-22.72-28h-1.28a160 160 0 0 0-6.4-24.96l4 1.44a16 16 0 0 0 16-2.56 16 16 0 0 0 5.28-16 157.6 157.6 0 0 0-73.6-106.88V221.12A48 48 0 0 0 752 128H480V64.96a16 16 0 0 0-32 0V128h-32V16.96a16 16 0 0 0-32 0V128H144a48 48 0 0 0-16 93.12V960H80a16 16 0 0 0 0 32h160a16 16 0 0 0 6.72-1.6 32 32 0 0 0 9.28 1.6h673.76a32 32 0 0 0 32-32v-39.2a80 80 0 0 0-44.32-71.68z m-113.76-278.56a25.28 25.28 0 0 0-16 6.72A26.24 26.24 0 0 0 784 608a120 120 0 0 1 9.28 41.28 16 16 0 0 0 9.12 13.28 16.96 16.96 0 0 0 13.12 0 48 48 0 0 1-1.76 25.44 45.28 45.28 0 0 1-13.76 22.88 16 16 0 0 0-16 11.36 209.28 209.28 0 0 1-22.4 50.24 174.56 174.56 0 0 1-19.04 26.24A99.04 99.04 0 0 1 672 838.4a98.88 98.88 0 0 1-71.52-38.4 187.52 187.52 0 0 1-19.2-26.24 214.72 214.72 0 0 1-22.72-50.88 15.04 15.04 0 0 0-14.56-11.36 39.04 39.04 0 0 1-13.76-23.52 48 48 0 0 1-1.12-24.64 16 16 0 0 0 22.24-13.92 120.96 120.96 0 0 1 1.76-16 65.28 65.28 0 0 0 0-18.88 221.6 221.6 0 0 1-1.28-53.12c3.04-31.04 20.32-48.8 48-48.8a16 16 0 0 0 9.6-3.2 124.64 124.64 0 0 1 64-17.76h10.56a121.28 121.28 0 0 1 119.68 78.88zM144 160h608a16 16 0 0 1 0 32H144a16 16 0 0 1 0-32z m16 800V224h576v243.04a183.36 183.36 0 0 0-53.44-7.68H672a164.96 164.96 0 0 0-72 17.28 171.52 171.52 0 0 0-77.44-17.28H512A159.04 159.04 0 0 0 433.28 480c-40.64 2.24-69.6 32-74.08 77.44a250.72 250.72 0 0 0 1.44 60.32c0 3.68 1.12 8.32 0.96 9.28v2.08h-1.28a33.6 33.6 0 0 0-22.72 28 84.48 84.48 0 0 0 1.92 37.76 66.4 66.4 0 0 0 32 44.32 250.4 250.4 0 0 0 21.92 48l-124 61.76A80 80 0 0 0 224 920.8V960z m96 0v-39.2a48 48 0 0 1 26.56-43.04l140.16-69.6h1.44a15.04 15.04 0 0 0 1.44-1.6 16 16 0 0 0 2.08-2.08 19.68 19.68 0 0 0 2.56-5.44 16 16 0 0 0 0-3.2 16 16 0 0 0 0-2.88 16 16 0 0 0-0.8-3.04 15.04 15.04 0 0 0 0-1.92v-0.96-1.12a215.68 215.68 0 0 1-30.24-62.4 14.88 14.88 0 0 0-14.4-11.36 38.88 38.88 0 0 1-14.56-24.16 49.12 49.12 0 0 1-1.12-24.64 16 16 0 0 0 22.4-13.92 124.32 124.32 0 0 1 1.76-16 64 64 0 0 0 0-18.88 218.72 218.72 0 0 1-1.28-52.96c3.04-31.04 20.32-48 48-48a16 16 0 0 0 9.6-3.2 123.2 123.2 0 0 1 64-17.92h10.56a160 160 0 0 1 30.24 3.04 86.24 86.24 0 0 0-33.6 64 250.72 250.72 0 0 0 1.44 60.32c0 3.68 0.96 8.32 0.96 9.28v1.92h-1.28a33.76 33.76 0 0 0-22.72 28 83.2 83.2 0 0 0 2.08 37.76 65.92 65.92 0 0 0 31.2 44.32 261.44 261.44 0 0 0 21.92 48l-124.16 61.6A80 80 0 0 0 384 920.8V960z m673.76 0H416v-39.2a48 48 0 0 1 26.56-43.04l128-64A133.6 133.6 0 0 0 672 870.4c39.36 0 74.72-23.68 101.28-57.12l129.92 64a48 48 0 0 1 26.56 43.04z" fill="#8D6C9F" p-id="1754"></path><path d="M624 547.52a26.56 26.56 0 0 0-33.76 9.28l-16.8 25.6a16 16 0 1 0 26.72 17.6l14.24-21.6 12.16 5.92a227.84 227.84 0 0 0 99.2 22.88H752a16 16 0 0 0 0-32h-26.08A195.68 195.68 0 0 1 640 555.52z" fill="#8D6C9F" p-id="1755"></path></svg>