<?xml version="1.0" standalone="no"?><!DOCTYPE svg PUBLIC "-//W3C//DTD SVG 1.1//EN" "http://www.w3.org/Graphics/SVG/1.1/DTD/svg11.dtd"><svg t="1724226900616" class="icon" viewBox="0 0 1024 1024" version="1.1" xmlns="http://www.w3.org/2000/svg" p-id="1926" xmlns:xlink="http://www.w3.org/1999/xlink" width="200" height="200"><path d="M176 912V176c0-17.6 14.4-32 32-32h404.8c17.6 0 33.6 6.4 44.8 19.2l139.2 139.2c11.2 12.8 19.2 28.8 19.2 44.8V912c0 17.6-14.4 32-32 32H208c-17.6 0-32-14.4-32-32z" fill="#EFD8BE" p-id="1927"></path><path d="M240 848V112c0-17.6 14.4-32 32-32h404.8c17.6 0 33.6 6.4 44.8 19.2l139.2 139.2c11.2 12.8 19.2 28.8 19.2 44.8V848c0 17.6-14.4 32-32 32H272c-17.6 0-32-14.4-32-32z" fill="#BBDEF9" p-id="1928"></path><path d="M881.6 590.4V283.2l-59.2-11.2-579.2 577.6c8 17.6 25.6 28.8 44.8 28.8h305.6l288-288zM742.4 185.6L240 688v96l563.2-563.2c-4.8-17.6-60.8-35.2-60.8-35.2zM238.4 595.2L688 144h48L238.4 643.2z" fill="#CCE7FC" p-id="1929"></path><path d="M376 160l19.2 36.8 36.8 19.2-36.8 19.2-19.2 36.8-19.2-36.8-36.8-19.2 36.8-19.2zM710.4 416l14.4 25.6 24 12.8-24 14.4-14.4 24-12.8-24-25.6-14.4 25.6-12.8zM393.6 608l9.6 17.6 17.6 9.6-17.6 8-9.6 17.6-8-17.6-17.6-8 17.6-9.6z" fill="#FFFFFF" p-id="1930"></path><path d="M692.8 76.8v153.6c0 20.8 17.6 38.4 38.4 38.4h153.6l-192-192z" fill="#F9E3AE" p-id="1931"></path><path d="M872 225.6l-139.2-139.2c-14.4-14.4-33.6-22.4-56-22.4H272c-27.2 0-48 20.8-48 48v16h-16c-27.2 0-48 20.8-48 48v736c0 27.2 20.8 48 48 48h576c27.2 0 48-20.8 48-48v-16h16c27.2 0 48-20.8 48-48V283.2c0-22.4-8-41.6-24-57.6z m-22.4 22.4c1.6 1.6 4.8 4.8 6.4 8H720c-9.6 0-16-6.4-16-16V104c3.2 1.6 4.8 3.2 8 6.4l137.6 137.6zM800 912c0 9.6-6.4 16-16 16H208c-9.6 0-16-6.4-16-16V176c0-9.6 6.4-16 16-16h16v688c0 27.2 20.8 48 48 48h528v16z m48-48H272c-9.6 0-16-6.4-16-16V112c0-9.6 6.4-16 16-16h400v144c0 27.2 20.8 48 48 48h144v560c0 9.6-6.4 16-16 16z" fill="#8D6C9F" p-id="1932"></path><path d="M352 736c-9.6 0-16 6.4-16 16v32c0 9.6 6.4 16 16 16s16-6.4 16-16v-32c0-9.6-6.4-16-16-16zM432 736c-9.6 0-16 6.4-16 16v32c0 9.6 6.4 16 16 16s16-6.4 16-16v-32c0-9.6-6.4-16-16-16zM512 736c-9.6 0-16 6.4-16 16v32c0 9.6 6.4 16 16 16s16-6.4 16-16v-32c0-9.6-6.4-16-16-16zM592 736c-9.6 0-16 6.4-16 16v32c0 9.6 6.4 16 16 16s16-6.4 16-16v-32c0-9.6-6.4-16-16-16zM672 736c-9.6 0-16 6.4-16 16v32c0 9.6 6.4 16 16 16s16-6.4 16-16v-32c0-9.6-6.4-16-16-16zM752 736c-9.6 0-16 6.4-16 16v32c0 9.6 6.4 16 16 16s16-6.4 16-16v-32c0-9.6-6.4-16-16-16zM832 736c-9.6 0-16 6.4-16 16v32c0 9.6 6.4 16 16 16s16-6.4 16-16v-32c0-9.6-6.4-16-16-16z" fill="#8D6C9F" p-id="1933"></path><path d="M560 624m-32 0a32 32 0 1 0 64 0 32 32 0 1 0-64 0Z" fill="#8D6C9F" p-id="1934"></path><path d="M672 368c0-44.8-35.2-80-80-80h-48c-44.8 0-80 35.2-80 80 0 9.6 6.4 16 16 16s16-6.4 16-16c0-27.2 20.8-48 48-48h48c27.2 0 48 20.8 48 48v12.8c0 24-14.4 44.8-36.8 51.2-35.2 11.2-59.2 44.8-59.2 81.6V544c0 9.6 6.4 16 16 16s16-6.4 16-16v-28.8c0-24 14.4-44.8 36.8-51.2 35.2-11.2 59.2-44.8 59.2-81.6V368z" fill="#8D6C9F" p-id="1935"></path></svg>