<?xml version="1.0" standalone="no"?><!DOCTYPE svg PUBLIC "-//W3C//DTD SVG 1.1//EN" "http://www.w3.org/Graphics/SVG/1.1/DTD/svg11.dtd"><svg t="1724229570918" class="icon" viewBox="0 0 1024 1024" version="1.1" xmlns="http://www.w3.org/2000/svg" p-id="2470" xmlns:xlink="http://www.w3.org/1999/xlink" width="200" height="200"><path d="M224 688h448s96 144 176 128c-16-64-26.72-128-26.72-128H928a48 48 0 0 0 48-48V160a48 48 0 0 0-48-48H224a48 48 0 0 0-48 48v480a48 48 0 0 0 48 48z" fill="#F9E3AE" p-id="2471"></path><path d="M298.4 256l9.28 17.12 17.12 9.28-17.12 9.28-9.28 17.12-9.28-17.12-17.12-9.28 17.12-9.28 9.28-17.12z" fill="#FFF8F8" p-id="2472"></path><path d="M688 688l280.96-280.96L960 192 464 688h224zM320 704l-32-16L864 112h72l14.08 19.04L336 744.96 320 704zM208 688H144L720 112h64L208 688z" fill="#FFEFCA" p-id="2473"></path><path d="M824 480l19.84 36.16L880 536l-36.16 19.84L824 592l-19.84-36.16L768 536l36.16-19.84L824 480zM742.72 192l13.6 24.96 25.12 13.76-25.12 13.6-13.6 25.12-13.76-25.12-24.96-13.6 24.96-13.76 13.76-24.96z" fill="#FFF8F8" p-id="2474"></path><path d="M976 672a16 16 0 0 1-16 16h-138.72S832 752 848 816c-80 16-176-128-176-128H224a48 48 0 0 1-48-48v-32h736a64 64 0 0 1 64 64z" fill="#F6D397" p-id="2475"></path><path d="M480 816H304s-64 128-144 112c16-64 26.72-112 26.72-112H96a48 48 0 0 1-48-48V448a48 48 0 0 1 48-48h384a48 48 0 0 1 48 48v320a48 48 0 0 1-48 48z" fill="#85CBF8" p-id="2476"></path><path d="M304 480h-32a80 80 0 0 0-80 80v96a80 80 0 0 0 80 80h32a78.88 78.88 0 0 0 22.88-3.68l10.24 25.6a16 16 0 0 0 29.76-11.84l-11.68-29.12A80 80 0 0 0 384 656v-96a80 80 0 0 0-80-80z m30.88 186.08a16 16 0 0 0-29.76 11.84l9.92 24.64A48 48 0 0 1 304 704h-32a48 48 0 0 1-48-48v-96a48 48 0 0 1 48-48h32a48 48 0 0 1 48 48v96a48 48 0 0 1-9.76 28.64z" fill="#F9EFDE" p-id="2477"></path><path d="M944 96H208a48 48 0 0 0-48 48v240H80a48 48 0 0 0-48 48v352a48 48 0 0 0 48 48h83.36a192 192 0 0 1-18.24 90.08A16 16 0 0 0 160 944h2.24a162.56 162.56 0 0 0 137.92-112H496a48 48 0 0 0 48-48v-80h117.44c13.44 27.84 59.52 100.16 183.04 128H848a16 16 0 0 0 13.76-24.16c-30.24-50.4-33.12-86.72-32-103.84H944a48 48 0 0 0 48-48V144a48 48 0 0 0-48-48zM512 784a16 16 0 0 1-16 16H288a16 16 0 0 0-16 13.28 125.92 125.92 0 0 1-87.36 92.8c20.16-64 7.2-93.76 5.44-97.28A16 16 0 0 0 176 800H80a16 16 0 0 1-16-16V432a16 16 0 0 1 16-16h416a16 16 0 0 1 16 16z m448-128a16 16 0 0 1-16 16h-128a16 16 0 0 0-15.2 10.88c0 1.92-13.28 42.08 16 107.84-103.36-35.04-128-104.64-129.6-107.84A16 16 0 0 0 672 672h-128V432a48 48 0 0 0-23.84-41.28L576 251.04 654.72 448H592a16 16 0 0 0 0 32h75.52l21.6 53.92a16 16 0 0 0 29.76-11.84l-128-320a16 16 0 0 0-29.76 0L488.32 384H192V144a16 16 0 0 1 16-16h736a16 16 0 0 1 16 16z" fill="#8D6C9F" p-id="2478"></path><path d="M912 576a16 16 0 0 0-16 16v32a16 16 0 0 0 32 0v-32a16 16 0 0 0-16-16zM832 576a16 16 0 0 0-16 16v32a16 16 0 0 0 32 0v-32a16 16 0 0 0-16-16zM752 576a16 16 0 0 0-16 16v32a16 16 0 0 0 32 0v-32a16 16 0 0 0-16-16zM672 576a16 16 0 0 0-16 16v32a16 16 0 0 0 32 0v-32a16 16 0 0 0-16-16zM592 576a16 16 0 0 0-16 16v32a16 16 0 0 0 32 0v-32a16 16 0 0 0-16-16z" fill="#8D6C9F" p-id="2479"></path></svg>