<?xml version="1.0" standalone="no"?><!DOCTYPE svg PUBLIC "-//W3C//DTD SVG 1.1//EN" "http://www.w3.org/Graphics/SVG/1.1/DTD/svg11.dtd"><svg t="1724229579629" class="icon" viewBox="0 0 1024 1024" version="1.1" xmlns="http://www.w3.org/2000/svg" p-id="2650" xmlns:xlink="http://www.w3.org/1999/xlink" width="200" height="200"><path d="M211.840127 15.040158H672.000055a47.999993 47.999993 0 0 1 47.999993 47.999992v767.99988a47.999993 47.999993 0 0 1-47.999993 47.999993H64.00015a47.999993 47.999993 0 0 1-47.999992-47.999993V210.880127a47.999993 47.999993 0 0 1 14.079997-33.919995l147.839977-147.839977a47.999993 47.999993 0 0 1 33.919995-14.079997z" fill="#BBDEF9" p-id="2651"></path><path d="M16.000158 880.000022l-2.4-151.359976L709.440049 32.960155 720.000048 400.000097 240.000123 880.000022H16.000158zM13.600158 562.400072L560.960072 15.040158l91.999986 3.999999L16.000158 656.000057l-2.4-93.599985zM13.600158 466.400087L464.000088 16.000157h47.999992L13.600158 514.40008v-47.999993z" fill="#CCE7FC" p-id="2652"></path><path d="M568.000071 112.000142l19.839997 36.159995L624.000063 168.000134l-36.159995 19.839997L568.000071 224.000125l-19.839997-36.159994L512.00008 168.000134l36.159994-19.839997L568.000071 112.000142zM326.720109 96.000145l13.599998 24.959996 25.119996 13.759998-25.119996 13.599998-13.599998 25.119996-13.759998-25.119996L288.000115 134.720139l24.959996-13.759998 13.759998-24.959996zM90.400146 688.000052l9.279998 16.959998 17.119998 9.439998-17.119998 9.279999-9.279998 17.119997-9.279999-17.119997L64.00015 714.400048l17.119997-9.439998 9.279999-16.959998z" fill="#FFFFFF" p-id="2653"></path><path d="M208.000128 16.000157v191.99997H16.000158L208.000128 16.000157zM144.000138 624.000062h63.99999v63.99999H144.000138zM144.000138 464.000087h63.99999v63.99999H144.000138zM144.000138 304.000112h63.99999v63.99999H144.000138z" fill="#FFEFB8" p-id="2654"></path><path d="M272.000118 528.000077v447.99993a31.999995 31.999995 0 0 0 31.999995 31.999995h671.999895a31.999995 31.999995 0 0 0 31.999995-31.999995V528.000077z" fill="#CDA1A7" p-id="2655"></path><path d="M1008.000003 1008.000002H272.000118v-63.99999h735.999885z" fill="#C4939C" p-id="2656"></path><path d="M272.000118 496.000082v95.999985a63.99999 63.99999 0 0 0 45.439992 61.279991l303.999953 92.479985a63.99999 63.99999 0 0 0 37.279994 0l303.999953-92.479985A63.99999 63.99999 0 0 0 1008.000003 592.000067v-95.999985a31.999995 31.999995 0 0 0-31.999995-31.999995H304.000113a31.999995 31.999995 0 0 0-31.999995 31.999995z" fill="#CDA1A7" p-id="2657"></path><path d="M304.000113 464.000087h671.999895a31.999995 31.999995 0 0 1 31.999995 31.999995 47.999993 47.999993 0 0 1-47.999993 47.999993H320.00011a47.999993 47.999993 0 0 1-47.999992-47.999993 31.999995 31.999995 0 0 1 31.999995-31.999995z" fill="#DBB2BA" p-id="2658"></path><path d="M592.000068 688.000052h95.999985v63.99999a47.999993 47.999993 0 0 1-47.999993 47.999993 47.999993 47.999993 0 0 1-47.999992-47.999993v-63.99999z" fill="#F9E3AE" p-id="2659"></path><path d="M528.000078 320.00011h63.99999a15.999998 15.999998 0 0 0 0-31.999995h-63.99999a15.999998 15.999998 0 0 0 0 31.999995zM272.000118 320.00011h191.99997a15.999998 15.999998 0 0 0 0-31.999995H272.000118a15.999998 15.999998 0 0 0 0 31.999995zM272.000118 384.0001h223.999965a15.999998 15.999998 0 0 0 0-31.999995H272.000118a15.999998 15.999998 0 0 0 0 31.999995zM192.00013 288.000115h-31.999995a31.999995 31.999995 0 0 0-31.999995 31.999995v31.999995a31.999995 31.999995 0 0 0 31.999995 31.999995h31.999995a31.999995 31.999995 0 0 0 31.999995-31.999995v-31.999995a31.999995 31.999995 0 0 0-31.999995-31.999995z m-31.999995 63.99999v-31.999995h31.999995v31.999995zM192.00013 448.00009h-31.999995a31.999995 31.999995 0 0 0-31.999995 31.999995v31.999995a31.999995 31.999995 0 0 0 31.999995 31.999995h31.999995a31.999995 31.999995 0 0 0 31.999995-31.999995v-31.999995a31.999995 31.999995 0 0 0-31.999995-31.999995z m-31.999995 63.99999v-31.999995h31.999995v31.999995zM192.00013 608.000065h-31.999995a31.999995 31.999995 0 0 0-31.999995 31.999995v31.999995a31.999995 31.999995 0 0 0 31.999995 31.999995h31.999995a31.999995 31.999995 0 0 0 31.999995-31.999995v-31.999995a31.999995 31.999995 0 0 0-31.999995-31.999995z m-31.999995 63.99999v-31.999995h31.999995v31.999995zM944.000013 928.000015h-63.99999a15.999998 15.999998 0 0 0 0 31.999995h63.99999a15.999998 15.999998 0 0 0 0-31.999995z" fill="#8D6C9F" p-id="2660"></path><path d="M976.000008 448.00009H776.640039l-41.599994-62.39999a15.999998 15.999998 0 0 0 0.96-4.959999V48.000152a47.999993 47.999993 0 0 0-47.999992-47.999992H218.560126a79.999988 79.999988 0 0 0-56.639991 23.359996l-138.559979 138.559979A79.999988 79.999988 0 0 0 0.00016 218.560126V848.000027a47.999993 47.999993 0 0 0 47.999993 47.999993h207.999967v79.999987a47.999993 47.999993 0 0 0 47.999993 47.999993h671.999895a47.999993 47.999993 0 0 0 47.999992-47.999993V496.000082a47.999993 47.999993 0 0 0-47.999992-47.999992z m0 31.999995a15.999998 15.999998 0 0 1 15.999997 15.999997v95.999985a47.999993 47.999993 0 0 1-34.079995 45.919993L704.00005 715.840048V704.00005a31.999995 31.999995 0 0 0-31.999995-31.999995h-63.99999a31.999995 31.999995 0 0 0-31.999995 31.999995v11.839998l-253.91996-77.279988A47.999993 47.999993 0 0 1 288.000115 592.000067v-95.999985a15.999998 15.999998 0 0 1 15.999998-15.999997h671.999895zM672.000055 704.00005v47.999992a31.999995 31.999995 0 0 1-63.99999 0v-47.999992z m-130.07998-255.99996l37.919994-56.799991a15.999998 15.999998 0 0 1 13.279998-7.199999h93.759986a15.999998 15.999998 0 0 1 13.279998 7.199999L738.080045 448.00009zM184.640131 46.080153A47.999993 47.999993 0 0 1 192.00013 40.000154V176.000132a15.999998 15.999998 0 0 1-15.999997 15.999998H40.000154a47.999993 47.999993 0 0 1 6.079999-7.359999zM48.000153 864.000025a15.999998 15.999998 0 0 1-15.999998-15.999998V224.000125h143.999978a47.999993 47.999993 0 0 0 47.999992-47.999993V32.000155h463.999928a15.999998 15.999998 0 0 1 15.999997 15.999997v307.519952a47.999993 47.999993 0 0 0-17.119997-3.519999h-93.759986a47.999993 47.999993 0 0 0-39.999993 21.439997L503.360081 448.00009H304.000113a47.999993 47.999993 0 0 0-47.999993 47.999992v367.999943z m927.999855 127.99998H304.000113a15.999998 15.999998 0 0 1-15.999998-15.999998v-15.999997h527.999918a15.999998 15.999998 0 0 0 0-31.999995H288.000115V656.000057a79.999988 79.999988 0 0 0 24.639996 12.639999l263.359959 79.999987V752.000042a63.99999 63.99999 0 0 0 127.99998 0v-2.719999l263.359959-79.999988A79.999988 79.999988 0 0 0 992.000005 656.000057v319.99995a15.999998 15.999998 0 0 1-15.999997 15.999998z" fill="#8D6C9F" p-id="2661"></path><path d="M320.00011 512.00008a15.999998 15.999998 0 0 0-15.999997 15.999997v31.999995a15.999998 15.999998 0 0 0 31.999995 0v-31.999995a15.999998 15.999998 0 0 0-15.999998-15.999997zM400.000098 512.00008a15.999998 15.999998 0 0 0-15.999998 15.999997v31.999995a15.999998 15.999998 0 0 0 31.999995 0v-31.999995a15.999998 15.999998 0 0 0-15.999997-15.999997zM464.000088 528.000077v31.999995a15.999998 15.999998 0 0 0 31.999995 0v-31.999995a15.999998 15.999998 0 0 0-31.999995 0zM560.000073 576.00007a15.999998 15.999998 0 0 0 15.999997-15.999998v-31.999995a15.999998 15.999998 0 0 0-31.999995 0v31.999995a15.999998 15.999998 0 0 0 15.999998 15.999998zM640.00006 576.00007a15.999998 15.999998 0 0 0 15.999998-15.999998v-31.999995a15.999998 15.999998 0 0 0-31.999995 0v31.999995a15.999998 15.999998 0 0 0 15.999997 15.999998zM720.000048 576.00007a15.999998 15.999998 0 0 0 15.999997-15.999998v-31.999995a15.999998 15.999998 0 0 0-31.999995 0v31.999995a15.999998 15.999998 0 0 0 15.999998 15.999998zM800.000035 576.00007a15.999998 15.999998 0 0 0 15.999998-15.999998v-31.999995a15.999998 15.999998 0 0 0-31.999995 0v31.999995a15.999998 15.999998 0 0 0 15.999997 15.999998zM880.000023 576.00007a15.999998 15.999998 0 0 0 15.999997-15.999998v-31.999995a15.999998 15.999998 0 0 0-31.999995 0v31.999995a15.999998 15.999998 0 0 0 15.999998 15.999998zM960.00001 576.00007a15.999998 15.999998 0 0 0 15.999998-15.999998v-31.999995a15.999998 15.999998 0 0 0-31.999995 0v31.999995a15.999998 15.999998 0 0 0 15.999997 15.999998z" fill="#8D6C9F" p-id="2662"></path></svg>