<?xml version="1.0" standalone="no"?><!DOCTYPE svg PUBLIC "-//W3C//DTD SVG 1.1//EN" "http://www.w3.org/Graphics/SVG/1.1/DTD/svg11.dtd"><svg t="1724226908420" class="icon" viewBox="0 0 1024 1024" version="1.1" xmlns="http://www.w3.org/2000/svg" p-id="2106" xmlns:xlink="http://www.w3.org/1999/xlink" width="200" height="200"><path d="M1008 144H48v704h394.72L464 912h128l21.28-64H1008V144z" fill="#CDA1A7" p-id="2107"></path><path d="M528 832l-37.28-48H112V112h352a64 64 0 0 1 64 64zM528 832l37.28-48H944V112H592a64 64 0 0 0-64 64z" fill="#FAEFDE" p-id="2108"></path><path d="M112 112h80v672H112z" fill="#FFF7F0" p-id="2109"></path><path d="M976 128h-18.88A48 48 0 0 0 912 96H592a80 80 0 0 0-64 32 80 80 0 0 0-64-32H144a48 48 0 0 0-45.12 32H80a48 48 0 0 0-48 48v640a48 48 0 0 0 48 48h339.52a20.48 20.48 0 0 1 19.84 16 64 64 0 0 0 62.08 48h52.96a64 64 0 0 0 62.08-48 20.48 20.48 0 0 1 19.84-16H976a48 48 0 0 0 48-48V176a48 48 0 0 0-48-48zM144 128h320a48 48 0 0 1 48 48v544a16 16 0 0 0 32 0V176a48 48 0 0 1 48-48h320a16 16 0 0 1 16 16v608a16 16 0 0 1-16 16H592a80 80 0 0 0-64 32 80 80 0 0 0-64-32H144a16 16 0 0 1-16-16V144a16 16 0 0 1 16-16z m848 688a16 16 0 0 1-16 16H636.48a52.32 52.32 0 0 0-50.88 39.68A32 32 0 0 1 554.56 896h-53.12a32 32 0 0 1-31.04-24.32A52.32 52.32 0 0 0 419.52 832H80a16 16 0 0 1-16-16V176a16 16 0 0 1 16-16h16v592a48 48 0 0 0 48 48h320a48 48 0 0 1 48 48 16 16 0 0 0 32 0 48 48 0 0 1 48-48h320a48 48 0 0 0 48-48V160h16a16 16 0 0 1 16 16z" fill="#8D6C9F" p-id="2110"></path><path d="M432 256h16a16 16 0 0 0 0-32h-16a16 16 0 0 0 0 32zM432 320h16a16 16 0 0 0 0-32h-16a16 16 0 0 0 0 32zM432 416h16a16 16 0 0 0 0-32h-16a16 16 0 0 0 0 32zM432 480h16a16 16 0 0 0 0-32h-16a16 16 0 0 0 0 32zM432 576h16a16 16 0 0 0 0-32h-16a16 16 0 0 0 0 32zM432 640h16a16 16 0 0 0 0-32h-16a16 16 0 0 0 0 32z" fill="#ED7899" p-id="2111"></path><path d="M368 256h16a16 16 0 0 0 0-32h-16a16 16 0 0 0 0 32zM368 320h16a16 16 0 0 0 0-32h-16a16 16 0 0 0 0 32zM368 480h16a16 16 0 0 0 0-32h-16a16 16 0 0 0 0 32zM368 576h16a16 16 0 0 0 0-32h-16a16 16 0 0 0 0 32z" fill="#72CAAF" p-id="2112"></path><path d="M208 256h64a16 16 0 0 0 0-32h-64a16 16 0 0 0 0 32zM208 320h96a16 16 0 0 0 0-32h-96a16 16 0 0 0 0 32zM208 480h32a16 16 0 0 0 0-32h-32a16 16 0 0 0 0 32zM208 416h64a16 16 0 0 0 0-32h-64a16 16 0 0 0 0 32zM208 640h32a16 16 0 0 0 0-32h-32a16 16 0 0 0 0 32zM208 576h64a16 16 0 0 0 0-32h-64a16 16 0 0 0 0 32z" fill="#8D6C9F" p-id="2113"></path><path d="M848 256h16a16 16 0 0 0 0-32h-16a16 16 0 0 0 0 32zM848 320h16a16 16 0 0 0 0-32h-16a16 16 0 0 0 0 32zM848 416h16a16 16 0 0 0 0-32h-16a16 16 0 0 0 0 32zM848 480h16a16 16 0 0 0 0-32h-16a16 16 0 0 0 0 32z" fill="#ED7899" p-id="2114"></path><path d="M784 320h16a16 16 0 0 0 0-32h-16a16 16 0 0 0 0 32zM784 416h16a16 16 0 0 0 0-32h-16a16 16 0 0 0 0 32z" fill="#72CAAF" p-id="2115"></path><path d="M624 256h64a16 16 0 0 0 0-32h-64a16 16 0 0 0 0 32zM624 320h96a16 16 0 0 0 0-32h-96a16 16 0 0 0 0 32zM624 480h32a16 16 0 0 0 0-32h-32a16 16 0 0 0 0 32zM624 416h64a16 16 0 0 0 0-32h-64a16 16 0 0 0 0 32z" fill="#8D6C9F" p-id="2116"></path></svg>